<?xml version="1.0" standalone="no"?>
<!DOCTYPE svg PUBLIC "-//W3C//DTD SVG 20010904//EN"
 "http://www.w3.org/TR/2001/REC-SVG-20010904/DTD/svg10.dtd">
<svg version="1.0" xmlns="http://www.w3.org/2000/svg"
 width="192.000000pt" height="192.000000pt" viewBox="0 0 192.000000 192.000000"
 preserveAspectRatio="xMidYMid meet">

<g transform="translate(0.000000,192.000000) scale(0.100000,-0.100000)"
fill="#000000" stroke="none">
<path d="M50 1211 l0 -711 70 0 70 0 0 -235 0 -235 -95 0 c-57 0 -95 -4 -95
-10 0 -17 186 -16 205 1 12 12 55 11 55 -1 0 -6 53 -10 140 -10 87 0 140 4
140 10 0 6 9 10 19 10 11 0 23 -4 26 -10 8 -13 322 -13 330 0 10 16 52 12 59
-5 8 -22 314 -21 323 1 6 16 43 19 43 4 0 -6 61 -10 164 -10 99 0 167 4 171
10 3 6 17 10 31 10 13 0 24 -4 24 -10 0 -6 38 -10 95 -10 57 0 95 4 95 10 0 6
-37 10 -90 10 l-90 0 2 238 3 237 73 3 72 3 0 699 0 700 -185 0 -185 0 0 -700
0 -699 73 -3 72 -3 3 -237 2 -238 -160 0 -160 0 -1 78 c0 42 0 465 0 940 l1
862 -35 0 -35 0 0 -940 0 -940 -150 0 -150 0 0 240 0 240 70 0 70 0 0 700 0
700 -185 0 -185 0 0 -700 0 -700 75 0 75 0 0 -240 0 -240 -155 0 -155 0 0 940
0 940 -31 0 -30 0 1 -247 c1 -137 1 -560 1 -940 l-1 -693 -130 0 -130 0 0 235
0 235 70 0 70 0 0 705 0 705 -119 0 c-65 0 -146 3 -180 6 l-61 7 0 -712z"/>
</g>
</svg>
